<?xml version="1.0" encoding="utf-8" standalone="no"?>
<!DOCTYPE svg PUBLIC "-//W3C//DTD SVG 1.1//EN"
  "http://www.w3.org/Graphics/SVG/1.1/DTD/svg11.dtd">
<!-- Created with matplotlib (http://matplotlib.org/) -->
<svg height="435pt" version="1.1" viewBox="0 0 576 435" width="576pt" xmlns="http://www.w3.org/2000/svg" xmlns:xlink="http://www.w3.org/1999/xlink">
 <defs>
  <style type="text/css">
*{stroke-linecap:butt;stroke-linejoin:round;}
  </style>
 </defs>
 <g id="figure_1">
  <g id="patch_1">
   <path d="
M0 435.6
L576.9 435.6
L576.9 0
L0 0
z
" style="fill:#ffffff;"/>
  </g>
  <g id="axes_1">
   <g id="patch_2">
    <path d="
M60.3225 390.24
L557.331 390.24
L557.331 48.56
L60.3225 48.56
z
" style="fill:#ffffff;"/>
   </g>
   <g id="line2d_1">
    <path clip-path="url(#p68c8e896b2)" d="
M60.3225 365.639
L557.331 47.8766" style="fill:none;stroke:#0000ff;stroke-linecap:square;"/>
   </g>
   <g id="patch_3">
    <path d="
M557.331 390.24
L557.331 48.56" style="fill:none;stroke:#000000;stroke-linecap:square;stroke-linejoin:miter;"/>
   </g>
   <g id="patch_4">
    <path d="
M60.3225 390.24
L60.3225 48.56" style="fill:none;stroke:#000000;stroke-linecap:square;stroke-linejoin:miter;"/>
   </g>
   <g id="patch_5">
    <path d="
M60.3225 390.24
L557.331 390.24" style="fill:none;stroke:#000000;stroke-linecap:square;stroke-linejoin:miter;"/>
   </g>
   <g id="patch_6">
    <path d="
M60.3225 48.56
L557.331 48.56" style="fill:none;stroke:#000000;stroke-linecap:square;stroke-linejoin:miter;"/>
   </g>
   <g id="matplotlib.axis_1">
    <g id="xtick_1">
     <g id="line2d_2">
      <defs>
       <path d="
M0 0
L0 -4" id="mc7db9fdffb" style="stroke:#000000;stroke-width:0.5;"/>
      </defs>
      <g>
       <use style="stroke:#000000;stroke-width:0.5;" x="60.3225" xlink:href="#mc7db9fdffb" y="390.24"/>
      </g>
     </g>
     <g id="line2d_3">
      <defs>
       <path d="
M0 0
L0 4" id="m5a7d422ac3" style="stroke:#000000;stroke-width:0.5;"/>
      </defs>
      <g>
       <use style="stroke:#000000;stroke-width:0.5;" x="60.3225" xlink:href="#m5a7d422ac3" y="48.56"/>
      </g>
     </g>
     <g id="text_1">
      <!-- 0 -->
      <defs>
       <path d="
M31.7812 66.4062
Q24.1719 66.4062 20.3281 58.9062
Q16.5 51.4219 16.5 36.375
Q16.5 21.3906 20.3281 13.8906
Q24.1719 6.39062 31.7812 6.39062
Q39.4531 6.39062 43.2812 13.8906
Q47.125 21.3906 47.125 36.375
Q47.125 51.4219 43.2812 58.9062
Q39.4531 66.4062 31.7812 66.4062
M31.7812 74.2188
Q44.0469 74.2188 50.5156 64.5156
Q56.9844 54.8281 56.9844 36.375
Q56.9844 17.9688 50.5156 8.26562
Q44.0469 -1.42188 31.7812 -1.42188
Q19.5312 -1.42188 13.0625 8.26562
Q6.59375 17.9688 6.59375 36.375
Q6.59375 54.8281 13.0625 64.5156
Q19.5312 74.2188 31.7812 74.2188" id="BitstreamVeraSans-Roman-30"/>
      </defs>
      <g transform="translate(57.2990625 403.358125)scale(0.12 -0.12)">
       <use xlink:href="#BitstreamVeraSans-Roman-30"/>
      </g>
     </g>
    </g>
    <g id="xtick_2">
     <g id="line2d_4">
      <g>
       <use style="stroke:#000000;stroke-width:0.5;" x="159.724125" xlink:href="#mc7db9fdffb" y="390.24"/>
      </g>
     </g>
     <g id="line2d_5">
      <g>
       <use style="stroke:#000000;stroke-width:0.5;" x="159.724125" xlink:href="#m5a7d422ac3" y="48.56"/>
      </g>
     </g>
     <g id="text_2">
      <!-- 2 -->
      <defs>
       <path d="
M19.1875 8.29688
L53.6094 8.29688
L53.6094 0
L7.32812 0
L7.32812 8.29688
Q12.9375 14.1094 22.625 23.8906
Q32.3281 33.6875 34.8125 36.5312
Q39.5469 41.8438 41.4219 45.5312
Q43.3125 49.2188 43.3125 52.7812
Q43.3125 58.5938 39.2344 62.25
Q35.1562 65.9219 28.6094 65.9219
Q23.9688 65.9219 18.8125 64.3125
Q13.6719 62.7031 7.8125 59.4219
L7.8125 69.3906
Q13.7656 71.7812 18.9375 73
Q24.125 74.2188 28.4219 74.2188
Q39.75 74.2188 46.4844 68.5469
Q53.2188 62.8906 53.2188 53.4219
Q53.2188 48.9219 51.5312 44.8906
Q49.8594 40.875 45.4062 35.4062
Q44.1875 33.9844 37.6406 27.2188
Q31.1094 20.4531 19.1875 8.29688" id="BitstreamVeraSans-Roman-32"/>
      </defs>
      <g transform="translate(156.94725 403.358125)scale(0.12 -0.12)">
       <use xlink:href="#BitstreamVeraSans-Roman-32"/>
      </g>
     </g>
    </g>
    <g id="xtick_3">
     <g id="line2d_6">
      <g>
       <use style="stroke:#000000;stroke-width:0.5;" x="259.12575" xlink:href="#mc7db9fdffb" y="390.24"/>
      </g>
     </g>
     <g id="line2d_7">
      <g>
       <use style="stroke:#000000;stroke-width:0.5;" x="259.12575" xlink:href="#m5a7d422ac3" y="48.56"/>
      </g>
     </g>
     <g id="text_3">
      <!-- 4 -->
      <defs>
       <path d="
M37.7969 64.3125
L12.8906 25.3906
L37.7969 25.3906
z

M35.2031 72.9062
L47.6094 72.9062
L47.6094 25.3906
L58.0156 25.3906
L58.0156 17.1875
L47.6094 17.1875
L47.6094 0
L37.7969 0
L37.7969 17.1875
L4.89062 17.1875
L4.89062 26.7031
z
" id="BitstreamVeraSans-Roman-34"/>
      </defs>
      <g transform="translate(255.93825 403.358125)scale(0.12 -0.12)">
       <use xlink:href="#BitstreamVeraSans-Roman-34"/>
      </g>
     </g>
    </g>
    <g id="xtick_4">
     <g id="line2d_8">
      <g>
       <use style="stroke:#000000;stroke-width:0.5;" x="358.527375" xlink:href="#mc7db9fdffb" y="390.24"/>
      </g>
     </g>
     <g id="line2d_9">
      <g>
       <use style="stroke:#000000;stroke-width:0.5;" x="358.527375" xlink:href="#m5a7d422ac3" y="48.56"/>
      </g>
     </g>
     <g id="text_4">
      <!-- 6 -->
      <defs>
       <path d="
M33.0156 40.375
Q26.375 40.375 22.4844 35.8281
Q18.6094 31.2969 18.6094 23.3906
Q18.6094 15.5312 22.4844 10.9531
Q26.375 6.39062 33.0156 6.39062
Q39.6562 6.39062 43.5312 10.9531
Q47.4062 15.5312 47.4062 23.3906
Q47.4062 31.2969 43.5312 35.8281
Q39.6562 40.375 33.0156 40.375
M52.5938 71.2969
L52.5938 62.3125
Q48.875 64.0625 45.0938 64.9844
Q41.3125 65.9219 37.5938 65.9219
Q27.8281 65.9219 22.6719 59.3281
Q17.5312 52.7344 16.7969 39.4062
Q19.6719 43.6562 24.0156 45.9219
Q28.375 48.1875 33.5938 48.1875
Q44.5781 48.1875 50.9531 41.5156
Q57.3281 34.8594 57.3281 23.3906
Q57.3281 12.1562 50.6875 5.35938
Q44.0469 -1.42188 33.0156 -1.42188
Q20.3594 -1.42188 13.6719 8.26562
Q6.98438 17.9688 6.98438 36.375
Q6.98438 53.6562 15.1875 63.9375
Q23.3906 74.2188 37.2031 74.2188
Q40.9219 74.2188 44.7031 73.4844
Q48.4844 72.75 52.5938 71.2969" id="BitstreamVeraSans-Roman-36"/>
      </defs>
      <g transform="translate(355.50675 403.358125)scale(0.12 -0.12)">
       <use xlink:href="#BitstreamVeraSans-Roman-36"/>
      </g>
     </g>
    </g>
    <g id="xtick_5">
     <g id="line2d_10">
      <g>
       <use style="stroke:#000000;stroke-width:0.5;" x="457.929" xlink:href="#mc7db9fdffb" y="390.24"/>
      </g>
     </g>
     <g id="line2d_11">
      <g>
       <use style="stroke:#000000;stroke-width:0.5;" x="457.929" xlink:href="#m5a7d422ac3" y="48.56"/>
      </g>
     </g>
     <g id="text_5">
      <!-- 8 -->
      <defs>
       <path d="
M31.7812 34.625
Q24.75 34.625 20.7188 30.8594
Q16.7031 27.0938 16.7031 20.5156
Q16.7031 13.9219 20.7188 10.1562
Q24.75 6.39062 31.7812 6.39062
Q38.8125 6.39062 42.8594 10.1719
Q46.9219 13.9688 46.9219 20.5156
Q46.9219 27.0938 42.8906 30.8594
Q38.875 34.625 31.7812 34.625
M21.9219 38.8125
Q15.5781 40.375 12.0312 44.7188
Q8.5 49.0781 8.5 55.3281
Q8.5 64.0625 14.7188 69.1406
Q20.9531 74.2188 31.7812 74.2188
Q42.6719 74.2188 48.875 69.1406
Q55.0781 64.0625 55.0781 55.3281
Q55.0781 49.0781 51.5312 44.7188
Q48 40.375 41.7031 38.8125
Q48.8281 37.1562 52.7969 32.3125
Q56.7812 27.4844 56.7812 20.5156
Q56.7812 9.90625 50.3125 4.23438
Q43.8438 -1.42188 31.7812 -1.42188
Q19.7344 -1.42188 13.25 4.23438
Q6.78125 9.90625 6.78125 20.5156
Q6.78125 27.4844 10.7812 32.3125
Q14.7969 37.1562 21.9219 38.8125
M18.3125 54.3906
Q18.3125 48.7344 21.8438 45.5625
Q25.3906 42.3906 31.7812 42.3906
Q38.1406 42.3906 41.7188 45.5625
Q45.3125 48.7344 45.3125 54.3906
Q45.3125 60.0625 41.7188 63.2344
Q38.1406 66.4062 31.7812 66.4062
Q25.3906 66.4062 21.8438 63.2344
Q18.3125 60.0625 18.3125 54.3906" id="BitstreamVeraSans-Roman-38"/>
      </defs>
      <g transform="translate(454.929 403.358125)scale(0.12 -0.12)">
       <use xlink:href="#BitstreamVeraSans-Roman-38"/>
      </g>
     </g>
    </g>
    <g id="xtick_6">
     <g id="line2d_12">
      <g>
       <use style="stroke:#000000;stroke-width:0.5;" x="557.330625" xlink:href="#mc7db9fdffb" y="390.24"/>
      </g>
     </g>
     <g id="line2d_13">
      <g>
       <use style="stroke:#000000;stroke-width:0.5;" x="557.330625" xlink:href="#m5a7d422ac3" y="48.56"/>
      </g>
     </g>
     <g id="text_6">
      <!-- 10 -->
      <defs>
       <path d="
M12.4062 8.29688
L28.5156 8.29688
L28.5156 63.9219
L10.9844 60.4062
L10.9844 69.3906
L28.4219 72.9062
L38.2812 72.9062
L38.2812 8.29688
L54.3906 8.29688
L54.3906 0
L12.4062 0
z
" id="BitstreamVeraSans-Roman-31"/>
      </defs>
      <g transform="translate(550.753125 403.358125)scale(0.12 -0.12)">
       <use xlink:href="#BitstreamVeraSans-Roman-31"/>
       <use x="63.623046875" xlink:href="#BitstreamVeraSans-Roman-30"/>
      </g>
     </g>
    </g>
    <g id="text_7">
     <!-- Largeur des fentes intermédiaires (mm) -->
     <defs>
      <path d="
M56.2031 29.5938
L56.2031 25.2031
L14.8906 25.2031
Q15.4844 15.9219 20.4844 11.0625
Q25.4844 6.20312 34.4219 6.20312
Q39.5938 6.20312 44.4531 7.46875
Q49.3125 8.73438 54.1094 11.2812
L54.1094 2.78125
Q49.2656 0.734375 44.1875 -0.34375
Q39.1094 -1.42188 33.8906 -1.42188
Q20.7969 -1.42188 13.1562 6.1875
Q5.51562 13.8125 5.51562 26.8125
Q5.51562 40.2344 12.7656 48.1094
Q20.0156 56 32.3281 56
Q43.3594 56 49.7812 48.8906
Q56.2031 41.7969 56.2031 29.5938
M47.2188 32.2344
Q47.125 39.5938 43.0938 43.9844
Q39.0625 48.3906 32.4219 48.3906
Q24.9062 48.3906 20.3906 44.1406
Q15.875 39.8906 15.1875 32.1719
z
" id="BitstreamVeraSans-Roman-65"/>
      <path d="
M44.2812 53.0781
L44.2812 44.5781
Q40.4844 46.5312 36.375 47.5
Q32.2812 48.4844 27.875 48.4844
Q21.1875 48.4844 17.8438 46.4375
Q14.5 44.3906 14.5 40.2812
Q14.5 37.1562 16.8906 35.375
Q19.2812 33.5938 26.5156 31.9844
L29.5938 31.2969
Q39.1562 29.25 43.1875 25.5156
Q47.2188 21.7812 47.2188 15.0938
Q47.2188 7.46875 41.1875 3.01562
Q35.1562 -1.42188 24.6094 -1.42188
Q20.2188 -1.42188 15.4531 -0.5625
Q10.6875 0.296875 5.42188 2
L5.42188 11.2812
Q10.4062 8.6875 15.2344 7.39062
Q20.0625 6.10938 24.8125 6.10938
Q31.1562 6.10938 34.5625 8.28125
Q37.9844 10.4531 37.9844 14.4062
Q37.9844 18.0625 35.5156 20.0156
Q33.0625 21.9688 24.7031 23.7812
L21.5781 24.5156
Q13.2344 26.2656 9.51562 29.9062
Q5.8125 33.5469 5.8125 39.8906
Q5.8125 47.6094 11.2812 51.7969
Q16.75 56 26.8125 56
Q31.7812 56 36.1719 55.2656
Q40.5781 54.5469 44.2812 53.0781" id="BitstreamVeraSans-Roman-73"/>
      <path d="
M18.3125 70.2188
L18.3125 54.6875
L36.8125 54.6875
L36.8125 47.7031
L18.3125 47.7031
L18.3125 18.0156
Q18.3125 11.3281 20.1406 9.42188
Q21.9688 7.51562 27.5938 7.51562
L36.8125 7.51562
L36.8125 0
L27.5938 0
Q17.1875 0 13.2344 3.875
Q9.28125 7.76562 9.28125 18.0156
L9.28125 47.7031
L2.6875 47.7031
L2.6875 54.6875
L9.28125 54.6875
L9.28125 70.2188
z
" id="BitstreamVeraSans-Roman-74"/>
      <path d="
M9.8125 72.9062
L19.6719 72.9062
L19.6719 8.29688
L55.1719 8.29688
L55.1719 0
L9.8125 0
z
" id="BitstreamVeraSans-Roman-4c"/>
      <path d="
M54.8906 33.0156
L54.8906 0
L45.9062 0
L45.9062 32.7188
Q45.9062 40.4844 42.875 44.3281
Q39.8438 48.1875 33.7969 48.1875
Q26.5156 48.1875 22.3125 43.5469
Q18.1094 38.9219 18.1094 30.9062
L18.1094 0
L9.07812 0
L9.07812 54.6875
L18.1094 54.6875
L18.1094 46.1875
Q21.3438 51.125 25.7031 53.5625
Q30.0781 56 35.7969 56
Q45.2188 56 50.0469 50.1719
Q54.8906 44.3438 54.8906 33.0156" id="BitstreamVeraSans-Roman-6e"/>
      <path d="
M45.4062 46.3906
L45.4062 75.9844
L54.3906 75.9844
L54.3906 0
L45.4062 0
L45.4062 8.20312
Q42.5781 3.32812 38.25 0.953125
Q33.9375 -1.42188 27.875 -1.42188
Q17.9688 -1.42188 11.7344 6.48438
Q5.51562 14.4062 5.51562 27.2969
Q5.51562 40.1875 11.7344 48.0938
Q17.9688 56 27.875 56
Q33.9375 56 38.25 53.625
Q42.5781 51.2656 45.4062 46.3906
M14.7969 27.2969
Q14.7969 17.3906 18.875 11.75
Q22.9531 6.10938 30.0781 6.10938
Q37.2031 6.10938 41.2969 11.75
Q45.4062 17.3906 45.4062 27.2969
Q45.4062 37.2031 41.2969 42.8438
Q37.2031 48.4844 30.0781 48.4844
Q22.9531 48.4844 18.875 42.8438
Q14.7969 37.2031 14.7969 27.2969" id="BitstreamVeraSans-Roman-64"/>
      <path d="
M56.2031 29.5938
L56.2031 25.2031
L14.8906 25.2031
Q15.4844 15.9219 20.4844 11.0625
Q25.4844 6.20312 34.4219 6.20312
Q39.5938 6.20312 44.4531 7.46875
Q49.3125 8.73438 54.1094 11.2812
L54.1094 2.78125
Q49.2656 0.734375 44.1875 -0.34375
Q39.1094 -1.42188 33.8906 -1.42188
Q20.7969 -1.42188 13.1562 6.1875
Q5.51562 13.8125 5.51562 26.8125
Q5.51562 40.2344 12.7656 48.1094
Q20.0156 56 32.3281 56
Q43.3594 56 49.7812 48.8906
Q56.2031 41.7969 56.2031 29.5938
M47.2188 32.2344
Q47.125 39.5938 43.0938 43.9844
Q39.0625 48.3906 32.4219 48.3906
Q24.9062 48.3906 20.3906 44.1406
Q15.875 39.8906 15.1875 32.1719
z

M38.5312 79.9844
L48.25 79.9844
L32.3438 61.625
L24.8594 61.625
z
" id="BitstreamVeraSans-Roman-e9"/>
      <path d="
M45.4062 27.9844
Q45.4062 37.75 41.375 43.1094
Q37.3594 48.4844 30.0781 48.4844
Q22.8594 48.4844 18.8281 43.1094
Q14.7969 37.75 14.7969 27.9844
Q14.7969 18.2656 18.8281 12.8906
Q22.8594 7.51562 30.0781 7.51562
Q37.3594 7.51562 41.375 12.8906
Q45.4062 18.2656 45.4062 27.9844
M54.3906 6.78125
Q54.3906 -7.17188 48.1875 -13.9844
Q42 -20.7969 29.2031 -20.7969
Q24.4688 -20.7969 20.2656 -20.0938
Q16.0625 -19.3906 12.1094 -17.9219
L12.1094 -9.1875
Q16.0625 -11.3281 19.9219 -12.3438
Q23.7812 -13.375 27.7812 -13.375
Q36.625 -13.375 41.0156 -8.76562
Q45.4062 -4.15625 45.4062 5.17188
L45.4062 9.625
Q42.625 4.78125 38.2812 2.39062
Q33.9375 0 27.875 0
Q17.8281 0 11.6719 7.65625
Q5.51562 15.3281 5.51562 27.9844
Q5.51562 40.6719 11.6719 48.3281
Q17.8281 56 27.875 56
Q33.9375 56 38.2812 53.6094
Q42.625 51.2188 45.4062 46.3906
L45.4062 54.6875
L54.3906 54.6875
z
" id="BitstreamVeraSans-Roman-67"/>
      <path d="
M41.1094 46.2969
Q39.5938 47.1719 37.8125 47.5781
Q36.0312 48 33.8906 48
Q26.2656 48 22.1875 43.0469
Q18.1094 38.0938 18.1094 28.8125
L18.1094 0
L9.07812 0
L9.07812 54.6875
L18.1094 54.6875
L18.1094 46.1875
Q20.9531 51.1719 25.4844 53.5781
Q30.0312 56 36.5312 56
Q37.4531 56 38.5781 55.875
Q39.7031 55.7656 41.0625 55.5156
z
" id="BitstreamVeraSans-Roman-72"/>
      <path d="
M52 44.1875
Q55.375 50.25 60.0625 53.125
Q64.75 56 71.0938 56
Q79.6406 56 84.2812 50.0156
Q88.9219 44.0469 88.9219 33.0156
L88.9219 0
L79.8906 0
L79.8906 32.7188
Q79.8906 40.5781 77.0938 44.375
Q74.3125 48.1875 68.6094 48.1875
Q61.625 48.1875 57.5625 43.5469
Q53.5156 38.9219 53.5156 30.9062
L53.5156 0
L44.4844 0
L44.4844 32.7188
Q44.4844 40.625 41.7031 44.4062
Q38.9219 48.1875 33.1094 48.1875
Q26.2188 48.1875 22.1562 43.5312
Q18.1094 38.875 18.1094 30.9062
L18.1094 0
L9.07812 0
L9.07812 54.6875
L18.1094 54.6875
L18.1094 46.1875
Q21.1875 51.2188 25.4844 53.6094
Q29.7812 56 35.6875 56
Q41.6562 56 45.8281 52.9688
Q50 49.9531 52 44.1875" id="BitstreamVeraSans-Roman-6d"/>
      <path d="
M31 75.875
Q24.4688 64.6562 21.2812 53.6562
Q18.1094 42.6719 18.1094 31.3906
Q18.1094 20.125 21.3125 9.0625
Q24.5156 -2 31 -13.1875
L23.1875 -13.1875
Q15.875 -1.70312 12.2344 9.375
Q8.59375 20.4531 8.59375 31.3906
Q8.59375 42.2812 12.2031 53.3125
Q15.8281 64.3594 23.1875 75.875
z
" id="BitstreamVeraSans-Roman-28"/>
      <path id="BitstreamVeraSans-Roman-20"/>
      <path d="
M8.5 21.5781
L8.5 54.6875
L17.4844 54.6875
L17.4844 21.9219
Q17.4844 14.1562 20.5 10.2656
Q23.5312 6.39062 29.5938 6.39062
Q36.8594 6.39062 41.0781 11.0312
Q45.3125 15.6719 45.3125 23.6875
L45.3125 54.6875
L54.2969 54.6875
L54.2969 0
L45.3125 0
L45.3125 8.40625
Q42.0469 3.42188 37.7188 1
Q33.4062 -1.42188 27.6875 -1.42188
Q18.2656 -1.42188 13.375 4.4375
Q8.5 10.2969 8.5 21.5781" id="BitstreamVeraSans-Roman-75"/>
      <path d="
M8.01562 75.875
L15.8281 75.875
Q23.1406 64.3594 26.7812 53.3125
Q30.4219 42.2812 30.4219 31.3906
Q30.4219 20.4531 26.7812 9.375
Q23.1406 -1.70312 15.8281 -13.1875
L8.01562 -13.1875
Q14.5 -2 17.7031 9.0625
Q20.9062 20.125 20.9062 31.3906
Q20.9062 42.6719 17.7031 53.6562
Q14.5 64.6562 8.01562 75.875" id="BitstreamVeraSans-Roman-29"/>
      <path d="
M37.1094 75.9844
L37.1094 68.5
L28.5156 68.5
Q23.6875 68.5 21.7969 66.5469
Q19.9219 64.5938 19.9219 59.5156
L19.9219 54.6875
L34.7188 54.6875
L34.7188 47.7031
L19.9219 47.7031
L19.9219 0
L10.8906 0
L10.8906 47.7031
L2.29688 47.7031
L2.29688 54.6875
L10.8906 54.6875
L10.8906 58.5
Q10.8906 67.625 15.1406 71.7969
Q19.3906 75.9844 28.6094 75.9844
z
" id="BitstreamVeraSans-Roman-66"/>
      <path d="
M34.2812 27.4844
Q23.3906 27.4844 19.1875 25
Q14.9844 22.5156 14.9844 16.5
Q14.9844 11.7188 18.1406 8.90625
Q21.2969 6.10938 26.7031 6.10938
Q34.1875 6.10938 38.7031 11.4062
Q43.2188 16.7031 43.2188 25.4844
L43.2188 27.4844
z

M52.2031 31.2031
L52.2031 0
L43.2188 0
L43.2188 8.29688
Q40.1406 3.32812 35.5469 0.953125
Q30.9531 -1.42188 24.3125 -1.42188
Q15.9219 -1.42188 10.9531 3.29688
Q6 8.01562 6 15.9219
Q6 25.1406 12.1719 29.8281
Q18.3594 34.5156 30.6094 34.5156
L43.2188 34.5156
L43.2188 35.4062
Q43.2188 41.6094 39.1406 45
Q35.0625 48.3906 27.6875 48.3906
Q23 48.3906 18.5469 47.2656
Q14.1094 46.1406 10.0156 43.8906
L10.0156 52.2031
Q14.9375 54.1094 19.5781 55.0469
Q24.2188 56 28.6094 56
Q40.4844 56 46.3438 49.8438
Q52.2031 43.7031 52.2031 31.2031" id="BitstreamVeraSans-Roman-61"/>
      <path d="
M9.42188 54.6875
L18.4062 54.6875
L18.4062 0
L9.42188 0
z

M9.42188 75.9844
L18.4062 75.9844
L18.4062 64.5938
L9.42188 64.5938
z
" id="BitstreamVeraSans-Roman-69"/>
     </defs>
     <g transform="translate(189.4096875 420.451875)scale(0.12 -0.12)">
      <use xlink:href="#BitstreamVeraSans-Roman-4c"/>
      <use x="55.712890625" xlink:href="#BitstreamVeraSans-Roman-61"/>
      <use x="116.9921875" xlink:href="#BitstreamVeraSans-Roman-72"/>
      <use x="156.35546875" xlink:href="#BitstreamVeraSans-Roman-67"/>
      <use x="219.83203125" xlink:href="#BitstreamVeraSans-Roman-65"/>
      <use x="281.35546875" xlink:href="#BitstreamVeraSans-Roman-75"/>
      <use x="344.734375" xlink:href="#BitstreamVeraSans-Roman-72"/>
      <use x="385.84765625" xlink:href="#BitstreamVeraSans-Roman-20"/>
      <use x="417.634765625" xlink:href="#BitstreamVeraSans-Roman-64"/>
      <use x="481.111328125" xlink:href="#BitstreamVeraSans-Roman-65"/>
      <use x="542.634765625" xlink:href="#BitstreamVeraSans-Roman-73"/>
      <use x="594.734375" xlink:href="#BitstreamVeraSans-Roman-20"/>
      <use x="626.521484375" xlink:href="#BitstreamVeraSans-Roman-66"/>
      <use x="661.7265625" xlink:href="#BitstreamVeraSans-Roman-65"/>
      <use x="723.25" xlink:href="#BitstreamVeraSans-Roman-6e"/>
      <use x="786.62890625" xlink:href="#BitstreamVeraSans-Roman-74"/>
      <use x="825.837890625" xlink:href="#BitstreamVeraSans-Roman-65"/>
      <use x="887.361328125" xlink:href="#BitstreamVeraSans-Roman-73"/>
      <use x="939.4609375" xlink:href="#BitstreamVeraSans-Roman-20"/>
      <use x="971.248046875" xlink:href="#BitstreamVeraSans-Roman-69"/>
      <use x="999.03125" xlink:href="#BitstreamVeraSans-Roman-6e"/>
      <use x="1062.41015625" xlink:href="#BitstreamVeraSans-Roman-74"/>
      <use x="1101.619140625" xlink:href="#BitstreamVeraSans-Roman-65"/>
      <use x="1163.142578125" xlink:href="#BitstreamVeraSans-Roman-72"/>
      <use x="1202.505859375" xlink:href="#BitstreamVeraSans-Roman-6d"/>
      <use x="1299.91796875" xlink:href="#BitstreamVeraSans-Roman-e9"/>
      <use x="1361.44140625" xlink:href="#BitstreamVeraSans-Roman-64"/>
      <use x="1424.91796875" xlink:href="#BitstreamVeraSans-Roman-69"/>
      <use x="1452.701171875" xlink:href="#BitstreamVeraSans-Roman-61"/>
      <use x="1513.98046875" xlink:href="#BitstreamVeraSans-Roman-69"/>
      <use x="1541.763671875" xlink:href="#BitstreamVeraSans-Roman-72"/>
      <use x="1580.626953125" xlink:href="#BitstreamVeraSans-Roman-65"/>
      <use x="1642.150390625" xlink:href="#BitstreamVeraSans-Roman-73"/>
      <use x="1694.25" xlink:href="#BitstreamVeraSans-Roman-20"/>
      <use x="1726.037109375" xlink:href="#BitstreamVeraSans-Roman-28"/>
      <use x="1765.05078125" xlink:href="#BitstreamVeraSans-Roman-6d"/>
      <use x="1862.462890625" xlink:href="#BitstreamVeraSans-Roman-6d"/>
      <use x="1959.875" xlink:href="#BitstreamVeraSans-Roman-29"/>
     </g>
    </g>
   </g>
   <g id="matplotlib.axis_2">
    <g id="ytick_1">
     <g id="line2d_14">
      <defs>
       <path d="
M0 0
L4 0" id="md7965d1ba0" style="stroke:#000000;stroke-width:0.5;"/>
      </defs>
      <g>
       <use style="stroke:#000000;stroke-width:0.5;" x="60.3225" xlink:href="#md7965d1ba0" y="390.24"/>
      </g>
     </g>
     <g id="line2d_15">
      <defs>
       <path d="
M0 0
L-4 0" id="md9a1c1a7cd" style="stroke:#000000;stroke-width:0.5;"/>
      </defs>
      <g>
       <use style="stroke:#000000;stroke-width:0.5;" x="557.330625" xlink:href="#md9a1c1a7cd" y="390.24"/>
      </g>
     </g>
     <g id="text_8">
      <!-- 0 -->
      <g transform="translate(50.275625 393.55125)scale(0.12 -0.12)">
       <use xlink:href="#BitstreamVeraSans-Roman-30"/>
      </g>
     </g>
    </g>
    <g id="ytick_2">
     <g id="line2d_16">
      <g>
       <use style="stroke:#000000;stroke-width:0.5;" x="60.3225" xlink:href="#md7965d1ba0" y="304.82"/>
      </g>
     </g>
     <g id="line2d_17">
      <g>
       <use style="stroke:#000000;stroke-width:0.5;" x="557.330625" xlink:href="#md9a1c1a7cd" y="304.82"/>
      </g>
     </g>
     <g id="text_9">
      <!-- 50 -->
      <defs>
       <path d="
M10.7969 72.9062
L49.5156 72.9062
L49.5156 64.5938
L19.8281 64.5938
L19.8281 46.7344
Q21.9688 47.4688 24.1094 47.8281
Q26.2656 48.1875 28.4219 48.1875
Q40.625 48.1875 47.75 41.5
Q54.8906 34.8125 54.8906 23.3906
Q54.8906 11.625 47.5625 5.09375
Q40.2344 -1.42188 26.9062 -1.42188
Q22.3125 -1.42188 17.5469 -0.640625
Q12.7969 0.140625 7.71875 1.70312
L7.71875 11.625
Q12.1094 9.23438 16.7969 8.0625
Q21.4844 6.89062 26.7031 6.89062
Q35.1562 6.89062 40.0781 11.3281
Q45.0156 15.7656 45.0156 23.3906
Q45.0156 31 40.0781 35.4375
Q35.1562 39.8906 26.7031 39.8906
Q22.75 39.8906 18.8125 39.0156
Q14.8906 38.1406 10.7969 36.2812
z
" id="BitstreamVeraSans-Roman-35"/>
      </defs>
      <g transform="translate(42.775625 308.13125)scale(0.12 -0.12)">
       <use xlink:href="#BitstreamVeraSans-Roman-35"/>
       <use x="63.623046875" xlink:href="#BitstreamVeraSans-Roman-30"/>
      </g>
     </g>
    </g>
    <g id="ytick_3">
     <g id="line2d_18">
      <g>
       <use style="stroke:#000000;stroke-width:0.5;" x="60.3225" xlink:href="#md7965d1ba0" y="219.4"/>
      </g>
     </g>
     <g id="line2d_19">
      <g>
       <use style="stroke:#000000;stroke-width:0.5;" x="557.330625" xlink:href="#md9a1c1a7cd" y="219.4"/>
      </g>
     </g>
     <g id="text_10">
      <!-- 100 -->
      <g transform="translate(35.5325 222.71125)scale(0.12 -0.12)">
       <use xlink:href="#BitstreamVeraSans-Roman-31"/>
       <use x="63.623046875" xlink:href="#BitstreamVeraSans-Roman-30"/>
       <use x="127.24609375" xlink:href="#BitstreamVeraSans-Roman-30"/>
      </g>
     </g>
    </g>
    <g id="ytick_4">
     <g id="line2d_20">
      <g>
       <use style="stroke:#000000;stroke-width:0.5;" x="60.3225" xlink:href="#md7965d1ba0" y="133.98"/>
      </g>
     </g>
     <g id="line2d_21">
      <g>
       <use style="stroke:#000000;stroke-width:0.5;" x="557.330625" xlink:href="#md9a1c1a7cd" y="133.98"/>
      </g>
     </g>
     <g id="text_11">
      <!-- 150 -->
      <g transform="translate(35.5325 137.29125)scale(0.12 -0.12)">
       <use xlink:href="#BitstreamVeraSans-Roman-31"/>
       <use x="63.623046875" xlink:href="#BitstreamVeraSans-Roman-35"/>
       <use x="127.24609375" xlink:href="#BitstreamVeraSans-Roman-30"/>
      </g>
     </g>
    </g>
    <g id="ytick_5">
     <g id="line2d_22">
      <g>
       <use style="stroke:#000000;stroke-width:0.5;" x="60.3225" xlink:href="#md7965d1ba0" y="48.56"/>
      </g>
     </g>
     <g id="line2d_23">
      <g>
       <use style="stroke:#000000;stroke-width:0.5;" x="557.330625" xlink:href="#md9a1c1a7cd" y="48.56"/>
      </g>
     </g>
     <g id="text_12">
      <!-- 200 -->
      <g transform="translate(35.09375 51.87125)scale(0.12 -0.12)">
       <use xlink:href="#BitstreamVeraSans-Roman-32"/>
       <use x="63.623046875" xlink:href="#BitstreamVeraSans-Roman-30"/>
       <use x="127.24609375" xlink:href="#BitstreamVeraSans-Roman-30"/>
      </g>
     </g>
    </g>
    <g id="text_13">
     <!-- Énergie minimale mesurable (cm$^{-1}$ relatif) -->
     <defs>
      <path d="
M48.6875 27.2969
Q48.6875 37.2031 44.6094 42.8438
Q40.5312 48.4844 33.4062 48.4844
Q26.2656 48.4844 22.1875 42.8438
Q18.1094 37.2031 18.1094 27.2969
Q18.1094 17.3906 22.1875 11.75
Q26.2656 6.10938 33.4062 6.10938
Q40.5312 6.10938 44.6094 11.75
Q48.6875 17.3906 48.6875 27.2969
M18.1094 46.3906
Q20.9531 51.2656 25.2656 53.625
Q29.5938 56 35.5938 56
Q45.5625 56 51.7812 48.0938
Q58.0156 40.1875 58.0156 27.2969
Q58.0156 14.4062 51.7812 6.48438
Q45.5625 -1.42188 35.5938 -1.42188
Q29.5938 -1.42188 25.2656 0.953125
Q20.9531 3.32812 18.1094 8.20312
L18.1094 0
L9.07812 0
L9.07812 75.9844
L18.1094 75.9844
z
" id="BitstreamVeraSans-Roman-62"/>
      <path d="
M10.2031 23
Q9.375 23 8.82812 23.625
Q8.29688 24.2656 8.29688 25
Q8.29688 25.7344 8.82812 26.3594
Q9.375 27 10.2031 27
L67.5781 27
Q68.3594 27 68.875 26.3594
Q69.3906 25.7344 69.3906 25
Q69.3906 24.2656 68.875 23.625
Q68.3594 23 67.5781 23
z
" id="Cmsy10-a1"/>
      <path d="
M48.7812 52.5938
L48.7812 44.1875
Q44.9688 46.2969 41.1406 47.3438
Q37.3125 48.3906 33.4062 48.3906
Q24.6562 48.3906 19.8125 42.8438
Q14.9844 37.3125 14.9844 27.2969
Q14.9844 17.2812 19.8125 11.7344
Q24.6562 6.20312 33.4062 6.20312
Q37.3125 6.20312 41.1406 7.25
Q44.9688 8.29688 48.7812 10.4062
L48.7812 2.09375
Q45.0156 0.34375 40.9844 -0.53125
Q36.9688 -1.42188 32.4219 -1.42188
Q20.0625 -1.42188 12.7812 6.34375
Q5.51562 14.1094 5.51562 27.2969
Q5.51562 40.6719 12.8594 48.3281
Q20.2188 56 33.0156 56
Q37.1562 56 41.1094 55.1406
Q45.0625 54.2969 48.7812 52.5938" id="BitstreamVeraSans-Roman-63"/>
      <path d="
M9.28125 0
L9.28125 3.51562
Q21.7812 3.51562 21.7812 6.6875
L21.7812 59.1875
Q16.6094 56.6875 8.6875 56.6875
L8.6875 60.2031
Q20.9531 60.2031 27.2031 66.6094
L28.6094 66.6094
Q28.9531 66.6094 29.2656 66.3281
Q29.5938 66.0625 29.5938 65.7188
L29.5938 6.6875
Q29.5938 3.51562 42.0938 3.51562
L42.0938 0
z
" id="Cmr10-31"/>
      <path d="
M9.8125 72.9062
L55.9062 72.9062
L55.9062 64.5938
L19.6719 64.5938
L19.6719 43.0156
L54.3906 43.0156
L54.3906 34.7188
L19.6719 34.7188
L19.6719 8.29688
L56.7812 8.29688
L56.7812 0
L9.8125 0
z

M35.4375 92.5156
L44.4688 92.5156
L33.3438 79.625
L25.8594 79.625
z
" id="BitstreamVeraSans-Roman-c9"/>
      <path d="
M9.42188 75.9844
L18.4062 75.9844
L18.4062 0
L9.42188 0
z
" id="BitstreamVeraSans-Roman-6c"/>
     </defs>
     <g transform="translate(27.57375 347.44)rotate(-90.0)scale(0.12 -0.12)">
      <use transform="translate(0.0 0.484375)" xlink:href="#BitstreamVeraSans-Roman-c9"/>
      <use transform="translate(63.18359375 0.484375)" xlink:href="#BitstreamVeraSans-Roman-6e"/>
      <use transform="translate(126.5625 0.484375)" xlink:href="#BitstreamVeraSans-Roman-65"/>
      <use transform="translate(188.0859375 0.484375)" xlink:href="#BitstreamVeraSans-Roman-72"/>
      <use transform="translate(229.19921875 0.484375)" xlink:href="#BitstreamVeraSans-Roman-67"/>
      <use transform="translate(292.67578125 0.484375)" xlink:href="#BitstreamVeraSans-Roman-69"/>
      <use transform="translate(320.458984375 0.484375)" xlink:href="#BitstreamVeraSans-Roman-65"/>
      <use transform="translate(381.982421875 0.484375)" xlink:href="#BitstreamVeraSans-Roman-20"/>
      <use transform="translate(413.76953125 0.484375)" xlink:href="#BitstreamVeraSans-Roman-6d"/>
      <use transform="translate(511.181640625 0.484375)" xlink:href="#BitstreamVeraSans-Roman-69"/>
      <use transform="translate(538.96484375 0.484375)" xlink:href="#BitstreamVeraSans-Roman-6e"/>
      <use transform="translate(602.34375 0.484375)" xlink:href="#BitstreamVeraSans-Roman-69"/>
      <use transform="translate(630.126953125 0.484375)" xlink:href="#BitstreamVeraSans-Roman-6d"/>
      <use transform="translate(727.5390625 0.484375)" xlink:href="#BitstreamVeraSans-Roman-61"/>
      <use transform="translate(788.818359375 0.484375)" xlink:href="#BitstreamVeraSans-Roman-6c"/>
      <use transform="translate(816.6015625 0.484375)" xlink:href="#BitstreamVeraSans-Roman-65"/>
      <use transform="translate(878.125 0.484375)" xlink:href="#BitstreamVeraSans-Roman-20"/>
      <use transform="translate(909.912109375 0.484375)" xlink:href="#BitstreamVeraSans-Roman-6d"/>
      <use transform="translate(1007.32421875 0.484375)" xlink:href="#BitstreamVeraSans-Roman-65"/>
      <use transform="translate(1068.84765625 0.484375)" xlink:href="#BitstreamVeraSans-Roman-73"/>
      <use transform="translate(1120.947265625 0.484375)" xlink:href="#BitstreamVeraSans-Roman-75"/>
      <use transform="translate(1184.326171875 0.484375)" xlink:href="#BitstreamVeraSans-Roman-72"/>
      <use transform="translate(1225.439453125 0.484375)" xlink:href="#BitstreamVeraSans-Roman-61"/>
      <use transform="translate(1286.71875 0.484375)" xlink:href="#BitstreamVeraSans-Roman-62"/>
      <use transform="translate(1350.1953125 0.484375)" xlink:href="#BitstreamVeraSans-Roman-6c"/>
      <use transform="translate(1377.978515625 0.484375)" xlink:href="#BitstreamVeraSans-Roman-65"/>
      <use transform="translate(1439.501953125 0.484375)" xlink:href="#BitstreamVeraSans-Roman-20"/>
      <use transform="translate(1471.2890625 0.484375)" xlink:href="#BitstreamVeraSans-Roman-28"/>
      <use transform="translate(1510.302734375 0.484375)" xlink:href="#BitstreamVeraSans-Roman-63"/>
      <use transform="translate(1565.283203125 0.484375)" xlink:href="#BitstreamVeraSans-Roman-6d"/>
      <use transform="translate(1662.6953125 43.0)scale(0.7)" xlink:href="#Cmsy10-a1"/>
      <use transform="translate(1717.0751953125 43.0)scale(0.7)" xlink:href="#Cmr10-31"/>
      <use transform="translate(1769.0814453125 0.484375)" xlink:href="#BitstreamVeraSans-Roman-20"/>
      <use transform="translate(1800.8685546875 0.484375)" xlink:href="#BitstreamVeraSans-Roman-72"/>
      <use transform="translate(1841.9818359375 0.484375)" xlink:href="#BitstreamVeraSans-Roman-65"/>
      <use transform="translate(1903.5052734375 0.484375)" xlink:href="#BitstreamVeraSans-Roman-6c"/>
      <use transform="translate(1931.2884765625 0.484375)" xlink:href="#BitstreamVeraSans-Roman-61"/>
      <use transform="translate(1992.5677734375 0.484375)" xlink:href="#BitstreamVeraSans-Roman-74"/>
      <use transform="translate(2031.7767578125 0.484375)" xlink:href="#BitstreamVeraSans-Roman-69"/>
      <use transform="translate(2059.5599609375 0.484375)" xlink:href="#BitstreamVeraSans-Roman-66"/>
      <use transform="translate(2094.7650390625 0.484375)" xlink:href="#BitstreamVeraSans-Roman-29"/>
     </g>
    </g>
   </g>
   <g id="text_14">
    <!-- Énergie minimale mesurable avec le U1000 -->
    <defs>
     <path d="
M2.98438 54.6875
L12.5 54.6875
L29.5938 8.79688
L46.6875 54.6875
L56.2031 54.6875
L35.6875 0
L23.4844 0
z
" id="BitstreamVeraSans-Roman-76"/>
     <path d="
M8.6875 72.9062
L18.6094 72.9062
L18.6094 28.6094
Q18.6094 16.8906 22.8438 11.7344
Q27.0938 6.59375 36.625 6.59375
Q46.0938 6.59375 50.3438 11.7344
Q54.5938 16.8906 54.5938 28.6094
L54.5938 72.9062
L64.5 72.9062
L64.5 27.3906
Q64.5 13.1406 57.4375 5.85938
Q50.3906 -1.42188 36.625 -1.42188
Q22.7969 -1.42188 15.7344 5.85938
Q8.6875 13.1406 8.6875 27.3906
z
" id="BitstreamVeraSans-Roman-55"/>
    </defs>
    <g transform="translate(151.8350625 26.38305)scale(0.144 -0.144)">
     <use xlink:href="#BitstreamVeraSans-Roman-c9"/>
     <use x="63.18359375" xlink:href="#BitstreamVeraSans-Roman-6e"/>
     <use x="126.5625" xlink:href="#BitstreamVeraSans-Roman-65"/>
     <use x="188.0859375" xlink:href="#BitstreamVeraSans-Roman-72"/>
     <use x="227.44921875" xlink:href="#BitstreamVeraSans-Roman-67"/>
     <use x="290.92578125" xlink:href="#BitstreamVeraSans-Roman-69"/>
     <use x="318.708984375" xlink:href="#BitstreamVeraSans-Roman-65"/>
     <use x="380.232421875" xlink:href="#BitstreamVeraSans-Roman-20"/>
     <use x="412.01953125" xlink:href="#BitstreamVeraSans-Roman-6d"/>
     <use x="509.431640625" xlink:href="#BitstreamVeraSans-Roman-69"/>
     <use x="537.21484375" xlink:href="#BitstreamVeraSans-Roman-6e"/>
     <use x="600.59375" xlink:href="#BitstreamVeraSans-Roman-69"/>
     <use x="628.376953125" xlink:href="#BitstreamVeraSans-Roman-6d"/>
     <use x="725.7890625" xlink:href="#BitstreamVeraSans-Roman-61"/>
     <use x="787.068359375" xlink:href="#BitstreamVeraSans-Roman-6c"/>
     <use x="814.8515625" xlink:href="#BitstreamVeraSans-Roman-65"/>
     <use x="876.375" xlink:href="#BitstreamVeraSans-Roman-20"/>
     <use x="908.162109375" xlink:href="#BitstreamVeraSans-Roman-6d"/>
     <use x="1005.57421875" xlink:href="#BitstreamVeraSans-Roman-65"/>
     <use x="1067.09765625" xlink:href="#BitstreamVeraSans-Roman-73"/>
     <use x="1119.197265625" xlink:href="#BitstreamVeraSans-Roman-75"/>
     <use x="1182.576171875" xlink:href="#BitstreamVeraSans-Roman-72"/>
     <use x="1223.689453125" xlink:href="#BitstreamVeraSans-Roman-61"/>
     <use x="1284.96875" xlink:href="#BitstreamVeraSans-Roman-62"/>
     <use x="1348.4453125" xlink:href="#BitstreamVeraSans-Roman-6c"/>
     <use x="1376.228515625" xlink:href="#BitstreamVeraSans-Roman-65"/>
     <use x="1437.751953125" xlink:href="#BitstreamVeraSans-Roman-20"/>
     <use x="1469.5390625" xlink:href="#BitstreamVeraSans-Roman-61"/>
     <use x="1530.818359375" xlink:href="#BitstreamVeraSans-Roman-76"/>
     <use x="1589.998046875" xlink:href="#BitstreamVeraSans-Roman-65"/>
     <use x="1651.521484375" xlink:href="#BitstreamVeraSans-Roman-63"/>
     <use x="1706.501953125" xlink:href="#BitstreamVeraSans-Roman-20"/>
     <use x="1738.2890625" xlink:href="#BitstreamVeraSans-Roman-6c"/>
     <use x="1766.072265625" xlink:href="#BitstreamVeraSans-Roman-65"/>
     <use x="1827.595703125" xlink:href="#BitstreamVeraSans-Roman-20"/>
     <use x="1859.3828125" xlink:href="#BitstreamVeraSans-Roman-55"/>
     <use x="1932.576171875" xlink:href="#BitstreamVeraSans-Roman-31"/>
     <use x="1996.19921875" xlink:href="#BitstreamVeraSans-Roman-30"/>
     <use x="2059.822265625" xlink:href="#BitstreamVeraSans-Roman-30"/>
     <use x="2123.4453125" xlink:href="#BitstreamVeraSans-Roman-30"/>
    </g>
    <!--  en fonction de la largeur des fentes intermédiaires -->
    <defs>
     <path d="
M30.6094 48.3906
Q23.3906 48.3906 19.1875 42.75
Q14.9844 37.1094 14.9844 27.2969
Q14.9844 17.4844 19.1562 11.8438
Q23.3438 6.20312 30.6094 6.20312
Q37.7969 6.20312 41.9844 11.8594
Q46.1875 17.5312 46.1875 27.2969
Q46.1875 37.0156 41.9844 42.7031
Q37.7969 48.3906 30.6094 48.3906
M30.6094 56
Q42.3281 56 49.0156 48.375
Q55.7188 40.7656 55.7188 27.2969
Q55.7188 13.875 49.0156 6.21875
Q42.3281 -1.42188 30.6094 -1.42188
Q18.8438 -1.42188 12.1719 6.21875
Q5.51562 13.875 5.51562 27.2969
Q5.51562 40.7656 12.1719 48.375
Q18.8438 56 30.6094 56" id="BitstreamVeraSans-Roman-6f"/>
    </defs>
    <g transform="translate(124.1015625 43.1991)scale(0.144 -0.144)">
     <use xlink:href="#BitstreamVeraSans-Roman-20"/>
     <use x="31.787109375" xlink:href="#BitstreamVeraSans-Roman-65"/>
     <use x="93.310546875" xlink:href="#BitstreamVeraSans-Roman-6e"/>
     <use x="156.689453125" xlink:href="#BitstreamVeraSans-Roman-20"/>
     <use x="188.4765625" xlink:href="#BitstreamVeraSans-Roman-66"/>
     <use x="223.681640625" xlink:href="#BitstreamVeraSans-Roman-6f"/>
     <use x="284.86328125" xlink:href="#BitstreamVeraSans-Roman-6e"/>
     <use x="348.2421875" xlink:href="#BitstreamVeraSans-Roman-63"/>
     <use x="403.22265625" xlink:href="#BitstreamVeraSans-Roman-74"/>
     <use x="442.431640625" xlink:href="#BitstreamVeraSans-Roman-69"/>
     <use x="470.21484375" xlink:href="#BitstreamVeraSans-Roman-6f"/>
     <use x="531.396484375" xlink:href="#BitstreamVeraSans-Roman-6e"/>
     <use x="594.775390625" xlink:href="#BitstreamVeraSans-Roman-20"/>
     <use x="626.5625" xlink:href="#BitstreamVeraSans-Roman-64"/>
     <use x="690.0390625" xlink:href="#BitstreamVeraSans-Roman-65"/>
     <use x="751.5625" xlink:href="#BitstreamVeraSans-Roman-20"/>
     <use x="783.349609375" xlink:href="#BitstreamVeraSans-Roman-6c"/>
     <use x="811.1328125" xlink:href="#BitstreamVeraSans-Roman-61"/>
     <use x="872.412109375" xlink:href="#BitstreamVeraSans-Roman-20"/>
     <use x="904.19921875" xlink:href="#BitstreamVeraSans-Roman-6c"/>
     <use x="931.982421875" xlink:href="#BitstreamVeraSans-Roman-61"/>
     <use x="993.26171875" xlink:href="#BitstreamVeraSans-Roman-72"/>
     <use x="1032.625" xlink:href="#BitstreamVeraSans-Roman-67"/>
     <use x="1096.1015625" xlink:href="#BitstreamVeraSans-Roman-65"/>
     <use x="1157.625" xlink:href="#BitstreamVeraSans-Roman-75"/>
     <use x="1221.00390625" xlink:href="#BitstreamVeraSans-Roman-72"/>
     <use x="1262.1171875" xlink:href="#BitstreamVeraSans-Roman-20"/>
     <use x="1293.904296875" xlink:href="#BitstreamVeraSans-Roman-64"/>
     <use x="1357.380859375" xlink:href="#BitstreamVeraSans-Roman-65"/>
     <use x="1418.904296875" xlink:href="#BitstreamVeraSans-Roman-73"/>
     <use x="1471.00390625" xlink:href="#BitstreamVeraSans-Roman-20"/>
     <use x="1502.791015625" xlink:href="#BitstreamVeraSans-Roman-66"/>
     <use x="1537.99609375" xlink:href="#BitstreamVeraSans-Roman-65"/>
     <use x="1599.51953125" xlink:href="#BitstreamVeraSans-Roman-6e"/>
     <use x="1662.8984375" xlink:href="#BitstreamVeraSans-Roman-74"/>
     <use x="1702.107421875" xlink:href="#BitstreamVeraSans-Roman-65"/>
     <use x="1763.630859375" xlink:href="#BitstreamVeraSans-Roman-73"/>
     <use x="1815.73046875" xlink:href="#BitstreamVeraSans-Roman-20"/>
     <use x="1847.517578125" xlink:href="#BitstreamVeraSans-Roman-69"/>
     <use x="1875.30078125" xlink:href="#BitstreamVeraSans-Roman-6e"/>
     <use x="1938.6796875" xlink:href="#BitstreamVeraSans-Roman-74"/>
     <use x="1977.888671875" xlink:href="#BitstreamVeraSans-Roman-65"/>
     <use x="2039.412109375" xlink:href="#BitstreamVeraSans-Roman-72"/>
     <use x="2078.775390625" xlink:href="#BitstreamVeraSans-Roman-6d"/>
     <use x="2176.1875" xlink:href="#BitstreamVeraSans-Roman-e9"/>
     <use x="2237.7109375" xlink:href="#BitstreamVeraSans-Roman-64"/>
     <use x="2301.1875" xlink:href="#BitstreamVeraSans-Roman-69"/>
     <use x="2328.970703125" xlink:href="#BitstreamVeraSans-Roman-61"/>
     <use x="2390.25" xlink:href="#BitstreamVeraSans-Roman-69"/>
     <use x="2418.033203125" xlink:href="#BitstreamVeraSans-Roman-72"/>
     <use x="2456.896484375" xlink:href="#BitstreamVeraSans-Roman-65"/>
     <use x="2518.419921875" xlink:href="#BitstreamVeraSans-Roman-73"/>
    </g>
   </g>
  </g>
 </g>
 <defs>
  <clipPath id="p68c8e896b2">
   <rect height="341.68" width="497.008125" x="60.3225" y="48.56"/>
  </clipPath>
 </defs>
</svg>
